<svg width="40" height="40" viewBox="0 0 40 40" fill="none" xmlns="http://www.w3.org/2000/svg">
<mask id="mask0_0_1635" style="mask-type:luminance" maskUnits="userSpaceOnUse" x="0" y="0" width="40" height="40">
<path d="M40 20C40 8.9543 31.0457 0 20 0C8.9543 0 0 8.9543 0 20C0 31.0457 8.9543 40 20 40C31.0457 40 40 31.0457 40 20Z" fill="white"/>
</mask>
<g mask="url(#mask0_0_1635)">
<path d="M40 0H0V40H40V0Z" fill="#EDD75A"/>
<path d="M14.3944 52.9441C26.5372 52.52 36.0372 42.3326 35.6132 30.1897C35.1891 18.0468 25.0017 8.54685 12.8588 8.97088C0.715936 9.39492 -8.78405 19.5824 -8.36001 31.7253C-7.93597 43.8681 2.25151 53.3681 14.3944 52.9441Z" fill="#0C8F8F"/>
<path d="M14.1892 25.8719C14.0354 26.9662 14.4676 28.0971 15.3905 29.0159C16.3135 29.9347 17.6518 30.5661 19.1108 30.7712C20.5699 30.9762 22.0303 30.7382 23.1708 30.1094C24.3113 29.4806 25.0384 28.5125 25.1922 27.4182" fill="white"/>
<path d="M14.4123 20.293C14.4977 19.6854 14.1975 19.1408 13.7417 19.0768C13.2859 19.0127 12.8472 19.4534 12.7618 20.0611C12.6764 20.6688 12.9767 21.2133 13.4324 21.2774C13.8882 21.3414 14.3269 20.9007 14.4123 20.293Z" fill="white"/>
<path d="M27.6159 22.1487C27.7013 21.541 27.401 20.9965 26.9453 20.9324C26.4895 20.8684 26.0508 21.3091 25.9654 21.9167C25.88 22.5244 26.1802 23.069 26.636 23.133C27.0918 23.1971 27.5305 22.7564 27.6159 22.1487Z" fill="white"/>
</g>
</svg>
